<?xml version="1.0" encoding="utf-8"?>
<!-- Generator: Adobe Illustrator 22.1.0, SVG Export Plug-In . SVG Version: 6.00 Build 0)  -->
<svg version="1.1" xmlns="http://www.w3.org/2000/svg" xmlns:xlink="http://www.w3.org/1999/xlink" x="0px" y="0px"
	 viewBox="0 0 1080 1080" style="enable-background:new 0 0 1080 1080;" xml:space="preserve">
<style type="text/css">
	.st0{display:none;}
	.st1{display:inline;}
	.st2{fill:#00205B;}
	.st3{fill:#FEDB00;}
	.st4{fill:#C8102E;}
	.st5{fill:#58585A;}
	.st6{fill:#39AEA8;}
	.st7{fill:#FFB806;}
	.st8{fill:#434344;}
</style>
<g id="Layer_1" class="st0">
	<g class="st1">
		<g>
			<g>
				<path class="st2" d="M343.1,820c0,6.3-0.6,12.4-2,18.2c-1.3,5.8-3.2,11.3-5.7,16.4c-2.4,5.1-5.5,9.9-9.1,14.2
					c-3.6,4.4-7.7,8.2-12.3,11.6l37.3,40.7h-28.1c-4,0-7.7-0.5-11-1.5c-3.3-1-6.2-2.9-8.8-5.9l-18.3-20.5c-3,0.6-6,1.1-9,1.4
					c-3.1,0.3-6.2,0.5-9.4,0.5c-11.4,0-21.9-1.9-31.3-5.8c-9.4-3.8-17.5-9.1-24.2-15.9c-6.7-6.8-11.9-14.7-15.5-23.9
					c-3.7-9.2-5.5-19-5.5-29.7c0-10.6,1.8-20.5,5.5-29.7c3.7-9.2,8.9-17.1,15.5-23.8c6.7-6.7,14.8-12,24.2-15.8
					c9.4-3.8,19.9-5.7,31.3-5.7c11.4,0,21.9,1.9,31.2,5.8c9.4,3.9,17.4,9.2,24.1,15.9c6.7,6.7,11.8,14.7,15.5,23.8
					C341.3,799.6,343.1,809.4,343.1,820z M308.2,820c0-7.3-0.9-13.8-2.8-19.6c-1.9-5.8-4.6-10.8-8.1-14.8c-3.5-4-7.9-7.1-13-9.3
					c-5.1-2.1-10.9-3.2-17.5-3.2c-6.6,0-12.5,1.1-17.6,3.2c-5.1,2.2-9.5,5.3-13,9.3c-3.5,4-6.2,9-8.1,14.8
					c-1.9,5.8-2.8,12.4-2.8,19.6c0,7.3,0.9,13.9,2.8,19.7c1.9,5.8,4.6,10.7,8.1,14.8c3.5,4,7.9,7.1,13,9.2c5.2,2.1,11,3.2,17.6,3.2
					c6.5,0,12.4-1.1,17.5-3.2c5.1-2.1,9.4-5.2,13-9.2c3.5-4.1,6.2-9,8.1-14.8C307.2,833.9,308.2,827.3,308.2,820z"/>
				<path class="st2" d="M487.9,893.6h-34.3v-62.2h-59.8v62.2h-34.3V746.5h34.3V808h59.8v-61.5h34.3V893.6z"/>
				<path class="st2" d="M584.4,893.6c-3,0-5.2-0.4-6.7-1.2c-1.5-0.8-2.8-2.5-3.8-5.1l-2.2-5.7c-2.6,2.2-5.2,4.2-7.6,5.9
					c-2.4,1.7-4.9,3.1-7.5,4.3c-2.6,1.2-5.3,2.1-8.3,2.6c-2.9,0.6-6.2,0.9-9.7,0.9c-4.8,0-9.1-0.6-13-1.9c-3.9-1.3-7.2-3.1-10-5.5
					c-2.7-2.4-4.8-5.5-6.3-9.1c-1.5-3.6-2.2-7.8-2.2-12.5c0-3.7,0.9-7.5,2.8-11.4c1.9-3.9,5.2-7.5,9.8-10.7c4.7-3.2,10.9-5.9,18.8-8
					c7.9-2.2,17.8-3.3,29.8-3.3v-4.5c0-6.2-1.3-10.6-3.8-13.4c-2.5-2.8-6.1-4.1-10.8-4.1c-3.7,0-6.7,0.4-9.1,1.2
					c-2.4,0.8-4.5,1.7-6.3,2.7c-1.8,1-3.6,1.9-5.4,2.7c-1.7,0.8-3.8,1.2-6.3,1.2c-2.2,0-4-0.5-5.5-1.6c-1.5-1-2.7-2.3-3.6-3.9
					l-5.7-9.8c6.3-5.6,13.3-9.7,21.1-12.5c7.7-2.7,16-4.1,24.8-4.1c6.3,0,12,1,17.1,3.1c5.1,2.1,9.4,4.9,12.9,8.6
					c3.5,3.7,6.2,8,8.1,13.1c1.9,5.1,2.8,10.6,2.8,16.6v65.4L584.4,893.6L584.4,893.6z M548.4,874.5c4,0,7.6-0.7,10.6-2.1
					c3-1.4,6.1-3.7,9.2-6.9v-14.3c-6.3,0-11.4,0.4-15.4,1.2c-4,0.8-7.2,1.8-9.6,3.1c-2.3,1.2-4,2.6-4.9,4.2
					c-0.9,1.6-1.3,3.3-1.3,5.1c0,3.6,1,6.1,2.9,7.6C541.8,873.8,544.7,874.5,548.4,874.5z"/>
				<path class="st2" d="M696.4,813.7c-0.9,1.1-1.8,2-2.7,2.7c-0.9,0.7-2.1,1-3.7,1c-1.5,0-2.9-0.4-4.2-1.1
					c-1.2-0.7-2.6-1.6-4.2-2.5c-1.5-0.9-3.4-1.8-5.4-2.5c-2.1-0.7-4.7-1.1-7.8-1.1c-3.8,0-7.2,0.7-10,2.1c-2.8,1.4-5.1,3.4-6.9,6
					c-1.8,2.6-3.2,5.8-4,9.6s-1.3,8.1-1.3,12.9c0,10,2,17.7,5.8,23.1c3.9,5.4,9.2,8.1,16,8.1c3.6,0,6.5-0.5,8.6-1.4
					c2.1-0.9,3.9-1.9,5.4-3c1.5-1.1,2.8-2.1,4.1-3.1c1.2-0.9,2.8-1.4,4.7-1.4c2.5,0,4.4,0.9,5.7,2.7l9.1,11.2
					c-3.2,3.7-6.6,6.7-10.2,9c-3.6,2.3-7.2,4.1-10.9,5.4c-3.7,1.3-7.5,2.2-11.2,2.7c-3.8,0.5-7.4,0.8-11,0.8
					c-6.4,0-12.5-1.2-18.3-3.6c-5.8-2.4-10.9-5.9-15.3-10.5s-7.9-10.3-10.5-17c-2.6-6.7-3.9-14.4-3.9-23c0-7.5,1.1-14.6,3.4-21.1
					c2.2-6.6,5.6-12.2,10-17.1c4.4-4.8,9.8-8.6,16.3-11.4c6.5-2.8,14-4.1,22.6-4.1c8.2,0,15.4,1.3,21.6,3.9
					c6.2,2.6,11.8,6.5,16.8,11.5L696.4,813.7z"/>
				<path class="st2" d="M750.3,742.5v84.7h4.6c2,0,3.5-0.3,4.5-0.8c1-0.5,2-1.5,3-2.9l19.8-29.5c1.1-1.7,2.5-3,4.1-3.8
					c1.6-0.8,3.6-1.2,6-1.2H821l-27.1,37.3c-1.3,1.7-2.7,3.3-4.2,4.6c-1.5,1.3-3.1,2.6-4.9,3.6c3,2.3,5.7,5.3,7.9,9.1l29.5,50h-28.3
					c-2.4,0-4.4-0.4-6.1-1.2c-1.7-0.8-3.1-2.1-4.2-4.1l-19.8-37c-0.9-1.7-1.9-2.8-2.9-3.3c-1-0.5-2.5-0.8-4.5-0.8h-6.1v46.3H719
					V742.5H750.3z"/>
				<path class="st2" d="M899.3,811.8c-0.8,1.3-1.7,2.2-2.6,2.7c-0.9,0.5-2.1,0.8-3.5,0.8c-1.5,0-2.9-0.3-4.4-1
					c-1.5-0.6-3.1-1.3-4.8-2.1c-1.7-0.7-3.7-1.4-5.8-2.1s-4.6-1-7.4-1c-4,0-7,0.8-9.1,2.3c-2.1,1.5-3.2,3.6-3.2,6.3
					c0,2,0.7,3.6,2.1,4.8c1.4,1.3,3.2,2.4,5.5,3.4c2.3,1,4.9,1.9,7.8,2.8c2.9,0.9,5.8,1.8,8.9,2.9c3,1.1,6,2.3,8.9,3.8
					c2.9,1.5,5.5,3.2,7.8,5.4c2.3,2.1,4.1,4.7,5.5,7.7c1.4,3,2.1,6.7,2.1,10.9c0,5.2-1,10-2.8,14.3c-1.9,4.4-4.7,8.1-8.4,11.3
					c-3.7,3.1-8.3,5.6-13.8,7.4c-5.5,1.8-11.8,2.6-18.9,2.6c-3.6,0-7.1-0.3-10.7-1s-7-1.6-10.4-2.7c-3.3-1.1-6.4-2.5-9.2-4.1
					c-2.8-1.6-5.2-3.3-7.3-5.1l7.3-11.5c0.9-1.3,1.9-2.4,3.1-3.2c1.2-0.8,2.8-1.2,4.8-1.2c1.8,0,3.4,0.4,4.9,1.2
					c1.4,0.8,3,1.7,4.7,2.6c1.7,0.9,3.6,1.8,5.9,2.6c2.3,0.8,5.1,1.2,8.5,1.2c2.4,0,4.5-0.3,6.1-0.8c1.7-0.5,3-1.2,4.1-2.1
					c1-0.9,1.8-1.8,2.2-2.9c0.5-1.1,0.7-2.2,0.7-3.3c0-2.1-0.7-3.8-2.1-5.2c-1.4-1.3-3.3-2.5-5.6-3.5c-2.3-1-4.9-1.9-7.8-2.7
					c-2.9-0.8-5.9-1.8-8.9-2.9c-3-1.1-6-2.4-8.9-3.9c-2.9-1.5-5.5-3.4-7.8-5.8c-2.3-2.3-4.1-5.2-5.5-8.5c-1.4-3.4-2.1-7.4-2.1-12.2
					c0-4.4,0.9-8.7,2.6-12.7c1.7-4,4.3-7.5,7.7-10.6c3.4-3,7.7-5.4,12.9-7.2c5.2-1.8,11.2-2.7,18.2-2.7c3.8,0,7.4,0.3,11,1
					c3.5,0.7,6.8,1.6,9.9,2.8c3.1,1.2,5.9,2.6,8.5,4.3c2.5,1.7,4.8,3.5,6.7,5.4L899.3,811.8z"/>
			</g>
		</g>
		<g>
			<polygon class="st3" points="374.2,532.7 392.9,552.1 530.6,594.3 450.3,504.3 			"/>
			<polygon class="st4" points="646.6,504.3 566,594.3 704.3,552 723,532.8 			"/>
			<polygon class="st4" points="511.4,339.3 461.4,495.7 541.2,585.2 541.2,401.1 521.5,339.3 			"/>
			<polygon class="st2" points="574.9,339.3 555.2,401.1 555.2,585.4 635.5,495.7 585.5,339.3 			"/>
			<polygon class="st2" points="895.5,395.1 879,392 732,543.6 809.8,519.8 854.8,616.3 903.5,460.6 			"/>
			<polygon class="st4" points="687.9,324.9 623.7,248 594.2,279.1 579.4,325.3 			"/>
			<polygon class="st3" points="890,349.6 846.6,286.9 774,357.8 893.7,380.6 			"/>
			<polygon class="st3" points="578,605.3 846.1,630.8 802.3,536.7 			"/>
			<polygon class="st4" points="1014.7,232.9 894.1,267.5 913.7,428.5 			"/>
			<polygon class="st4" points="218.2,392 201.7,395.1 193.8,460.6 242.5,616.3 287.5,519.8 365.2,543.6 			"/>
			<polygon class="st2" points="517,325.3 501.8,277.7 473.6,248 409.3,324.9 			"/>
			<polygon class="st3" points="203.5,380.6 323.2,357.8 250.7,286.9 207.3,349.6 			"/>
			<polygon class="st2" points="518.6,605.3 295,536.7 251.1,630.8 			"/>
			<polygon class="st2" points="82.6,232.9 183.6,428.5 203.2,267.5 			"/>
			<polygon class="st3" points="493.7,206.5 548.2,377 602.7,206.5 548.2,146.7 			"/>
		</g>
	</g>
</g>
<g id="Layer_2">
	<g>
		<path class="st5" d="M127,444.1c-6.4,2.2-22.5,4.1-22.5,4.1c7.8,5-4.4,10.1-4.4,10.1C140.4,455.7,127,444.1,127,444.1z"/>
		<path class="st5" d="M86.7,423.5c0,0,12.5-4.5,10.1,4.5c0,0,13.1-9.4,19.4-12.1C116.1,415.9,118.2,398.2,86.7,423.5z"/>
		<path class="st6" d="M168.8,420.5L168.8,420.5C168.8,420.5,168.9,420.5,168.8,420.5C168.9,420.5,168.9,420.5,168.8,420.5
			c0.2-0.1,0.2-0.2,0.3-0.3c1.6-2,10.5-12.3,23.6-17.7c0.2,0.5,0.8,0.8,1.3,0.6c0.5-0.2,0.8-0.8,0.6-1.3c-0.2-0.5-0.8-0.8-1.3-0.6
			c-0.5,0.2-0.8,0.8-0.6,1.3c-13.2,4.8-26.8,3.1-29.3,2.8c-0.1-0.1-0.3-0.1-0.4-0.1c0,0,0,0-0.1,0c-0.9-0.4-9.4-3.6-28,3.6
			c-19.7,7.6-37,20.4-37,20.4l3.4,8.7l3.4,8.7c0,0,21.3-2.2,41.1-9.8C164.3,429.5,168.4,421.5,168.8,420.5z M157.5,416.1
			c1,2.5-0.3,5.3-2.8,6.3c-2.5,1-5.3-0.3-6.3-2.8c-1-2.5,0.3-5.3,2.8-6.3C153.8,412.3,156.6,413.6,157.5,416.1z M141.4,422.3
			c1,2.5-0.3,5.3-2.8,6.3c-2.5,1-5.3-0.3-6.3-2.8c-1-2.5,0.3-5.3,2.8-6.3C137.6,418.5,140.4,419.8,141.4,422.3z M116.2,432
			c-1-2.5,0.3-5.3,2.8-6.3c2.5-1,5.3,0.3,6.3,2.8c1,2.5-0.3,5.3-2.8,6.3C120,435.8,117.2,434.5,116.2,432z"/>
		<path class="st7" d="M100.7,443.9c0,0-3,2.6-7.1,2.3c0,0,1.1-0.2,1.3-1c0-0.1,0.1-0.3,0-0.5c-0.1-1.2-4.3,1.7-10.1-0.6
			c2.8-5.6,7.8-6.3,7.1-7.2c-0.1-0.1-0.2-0.2-0.3-0.3c-0.7-0.4-1.6,0.2-1.6,0.2c2.8-3,6.8-3.1,6.8-3.1l-1-2.5c0,0-5.9,0.1-10,4.5
			c0,0,1.3-0.9,2.4-0.3c0.2,0.1,0.4,0.3,0.5,0.5c1.1,1.4-6.4,2.4-10.5,10.7c8.7,3.4,14.8-0.9,15,0.9c0,0.3,0,0.5-0.1,0.7
			c-0.4,1.2-2,1.4-2,1.4c6.1,0.5,10.5-3.4,10.5-3.4L100.7,443.9z"/>
	</g>
	<g>
		<path class="st8" d="M81.1,451.4v-14.7H49.7v47.4C56.2,471.2,68.8,460,81.1,451.4z"/>
		<path class="st8" d="M81.1,471.2c-22,23.1-29.2,46.6-31.4,62v16.9h86.4v-27.5H81.1V471.2z"/>
		<path class="st8" d="M192.4,435.8l-48,113.7h32.9l8.1-20.2h43.5l8.2,20.2h33.5l-48-113.7H192.4z M194.5,505.1l12.7-32.1l12.6,32.1
			H194.5z"/>
		<path class="st8" d="M353.3,500.1c0,8-1.9,13.8-5.6,17.6c-3.7,3.8-8.7,5.6-15,5.6s-11.3-2-15-5.9c-3.7-3.9-5.6-10-5.6-18.1v-62.7
			h-31.9v63.4c0,8.8,1.2,16.5,3.6,23c2.4,6.5,5.9,11.9,10.4,16.1c4.5,4.2,10,7.4,16.4,9.4c6.4,2,13.7,3.1,21.8,3.1
			c8.1,0,15.3-1,21.8-3.1c6.5-2,12-5.2,16.6-9.4c4.6-4.2,8.1-9.7,10.6-16.3c2.5-6.6,3.8-14.5,3.8-23.6v-62.6h-31.9V500.1z"/>
		<polygon class="st8" points="479.5,496.2 433,436.6 403.7,436.6 403.7,549.4 434.5,549.4 434.5,487.5 482.8,549.4 510.3,549.4 
			510.3,436.6 479.5,436.6 		"/>
		<path class="st8" d="M605.8,515c-1.8,1.7-3.7,3.1-5.6,4.4c-2,1.2-4.2,2.2-6.6,2.8c-2.4,0.6-5.1,1-8,1c-4,0-7.6-0.8-10.9-2.3
			c-3.3-1.6-6.1-3.7-8.5-6.4c-2.4-2.7-4.2-5.9-5.6-9.6c-1.3-3.7-2-7.7-2-11.8v-0.3c0-4.1,0.7-8,2-11.6c1.3-3.7,3.2-6.8,5.6-9.5
			c2.4-2.7,5.2-4.8,8.5-6.4c3.3-1.6,6.9-2.3,10.9-2.3c5.5,0,10.2,1.2,14,3.5c3.9,2.4,7.4,5.6,10.6,9.7l23.5-18.2
			c-2.5-3.4-5.3-6.6-8.5-9.5c-3.2-2.9-6.7-5.4-10.6-7.5c-3.9-2.1-8.2-3.7-13-4.8c-4.7-1.1-10-1.7-15.8-1.7c-8.6,0-16.5,1.5-23.8,4.5
			c-7.3,3-13.5,7.2-18.8,12.5c-5.3,5.3-9.4,11.6-12.4,18.7c-3,7.1-4.5,14.8-4.5,23v0.3c0,8.4,1.5,16.1,4.6,23.3
			c3.1,7.1,7.2,13.3,12.4,18.5c5.2,5.2,11.4,9.3,18.5,12.2c7.1,2.9,14.7,4.4,22.7,4.4c6.2,0,11.8-0.6,16.8-1.9
			c5-1.3,9.5-3.1,13.5-5.3c4-2.3,7.6-4.9,10.8-8.1c3.2-3.1,6.1-6.5,8.8-10.2l-23.5-16.8C609.3,511.5,607.6,513.4,605.8,515z"/>
		<polygon class="st8" points="719.4,436.6 719.4,478.8 679.3,478.8 679.3,436.6 648,436.6 648,549.4 679.3,549.4 679.3,506.6 
			719.4,506.6 719.4,549.4 750.7,549.4 750.7,436.6 		"/>
	</g>
	
		<image style="overflow:visible;" width="820" height="492" xlink:href="../Logo/IIITD_logo.png"  transform="matrix(0.3968 0 0 0.3968 736.3726 393.4849)">
	</image>
</g>
</svg>
